# xmcd CD database file
#
# Track frame offsets:
#	150
#	20733
#	39998
#	56425
#	76140
#	97030
#	115320
#	136333
#	156440
#	179143
#	200733
#
# Disc length: 2953 seconds
#
# Revision: 4
# Processed by: cddbd v1.5.2PL0 Copyright (c) Steve Scherf et al.
# Submitted via: CDex 1.70beta3
#
DISCID=9a0b870b
DTITLE=Various Artist - D・N・ANGEL Vocal Collection
DYEAR=2003
DGENRE=Anime
TTITLE0=入野自由/風になりたい
TTITLE1=宮本駿一/白夜～True　Light～
TTITLE2=みなを/やさしい午後
TTITLE3=置鮎龍太郎/鼓動～whenever～
TTITLE4=みなを/忘れもの
TTITLE5=草尾毅/楽園～Fanatic～
TTITLE6=みなを/雨のうた
TTITLE7=中山さら／浅野真澄/ふたつの願い
TTITLE8=宮本駿一/白夜～True　Light～（Acoustic　Version）
TTITLE9=みなを/はじまりの日
TTITLE10=宮本駿一/道標
EXTD=YEAR: 2003
EXTT0=
EXTT1=
EXTT2=
EXTT3=
EXTT4=
EXTT5=
EXTT6=
EXTT7=
EXTT8=
EXTT9=
EXTT10=
PLAYORDER=
